<?xml version="1.0" encoding="UTF-8"?>
<svg width="24px" height="24px" viewBox="0 0 24 24" version="1.1" xmlns="http://www.w3.org/2000/svg">
    <g stroke="none" stroke-width="1" fill="none" fill-rule="evenodd">
        <path d="M12,2 C13.1045695,2 14,2.8954305 14,4 L14,20 C14,21.1045695 13.1045695,22 12,22 C10.8954305,22 10,21.1045695 10,20 L10,4 C10,2.8954305 10.8954305,2 12,2 Z M7,7 C8.1045695,7 9,7.8954305 9,9 L9,15 C9,16.1045695 8.1045695,17 7,17 C5.8954305,17 5,16.1045695 5,15 L5,9 C5,7.8954305 5.8954305,7 7,7 Z M17,7 C18.1045695,7 19,7.8954305 19,9 L19,15 C19,16.1045695 18.1045695,17 17,17 C15.8954305,17 15,16.1045695 15,15 L15,9 C15,7.8954305 15.8954305,7 17,7 Z" fill="#3B4899"/>
    </g>
</svg> 